# xmcd CD database file
#
# Track frame offsets:
#	150
#	21475
#	40312
#	42525
#	61812
#	93925
#
# Disc length: 4440 seconds
#
# Revision: 0
# Processed by: cddbd v1.5PL3 Copyright (c) Steve Scherf et al.
# Submitted via: CDex 1.51
#
DISCID=4b115606
DTITLE=Janne Da Arc - Kiss Me
DYEAR=2004
DGENRE=Rock
TTITLE0=Kiss Me
TTITLE1=Hysteric Moon
TTITLE2=
TTITLE3=explosion-DanjiriNight live ver
TTITLE4=霞ゆく空背にして-DanjiriNight live ver
TTITLE5=/////
EXTD=YEAR: 2004
EXTT0=
EXTT1=
EXTT2=
EXTT3=
EXTT4=
EXTT5=
PLAYORDER=
